<mxfile host="app.diagrams.net" modified="2023-04-12T13:27:40.662Z" agent="Mozilla/5.0 (Windows NT 10.0; Win64; x64) AppleWebKit/537.36 (KHTML, like Gecko) Chrome/111.0.0.0 Safari/537.36" etag="x7URkO7BwfpbHDycfU_3" version="21.1.5" type="github">
  <diagram name="第 1 页" id="WIGXF4rkzrxD22ZnVlbf">
    <mxGraphModel dx="954" dy="552" grid="1" gridSize="10" guides="1" tooltips="1" connect="1" arrows="1" fold="1" page="1" pageScale="1" pageWidth="827" pageHeight="1169" math="0" shadow="0">
      <root>
        <mxCell id="0" />
        <mxCell id="1" parent="0" />
        <mxCell id="gv8EMFHTvYQYM4VQ_yAs-1" value="" style="rounded=1;whiteSpace=wrap;html=1;fillColor=#fff2cc;strokeColor=#d6b656;" vertex="1" parent="1">
          <mxGeometry x="230" y="632" width="120" height="60" as="geometry" />
        </mxCell>
        <mxCell id="gv8EMFHTvYQYM4VQ_yAs-2" value="&lt;p class=&quot;MsoNormal&quot;&gt;&lt;font style=&quot;font-size: 18px;&quot; face=&quot;宋体&quot;&gt;文档上传模块&lt;/font&gt;&lt;/p&gt;" style="text;html=1;strokeColor=none;fillColor=none;align=center;verticalAlign=middle;whiteSpace=wrap;rounded=0;" vertex="1" parent="1">
          <mxGeometry x="227.5" y="647" width="125" height="30" as="geometry" />
        </mxCell>
        <mxCell id="gv8EMFHTvYQYM4VQ_yAs-3" value="" style="rounded=1;whiteSpace=wrap;html=1;fillColor=#fff2cc;strokeColor=#d6b656;" vertex="1" parent="1">
          <mxGeometry x="230" y="749" width="120" height="60" as="geometry" />
        </mxCell>
        <mxCell id="gv8EMFHTvYQYM4VQ_yAs-44" value="" style="edgeStyle=orthogonalEdgeStyle;rounded=0;orthogonalLoop=1;jettySize=auto;html=1;" edge="1" parent="1" source="gv8EMFHTvYQYM4VQ_yAs-4" target="gv8EMFHTvYQYM4VQ_yAs-8">
          <mxGeometry relative="1" as="geometry" />
        </mxCell>
        <mxCell id="gv8EMFHTvYQYM4VQ_yAs-4" value="&lt;p class=&quot;MsoNormal&quot;&gt;&lt;font style=&quot;font-size: 18px;&quot; face=&quot;宋体&quot;&gt;文档上传模块&lt;/font&gt;&lt;/p&gt;" style="text;html=1;strokeColor=none;fillColor=none;align=center;verticalAlign=middle;whiteSpace=wrap;rounded=0;" vertex="1" parent="1">
          <mxGeometry x="227.5" y="764" width="125" height="30" as="geometry" />
        </mxCell>
        <mxCell id="gv8EMFHTvYQYM4VQ_yAs-5" value="" style="rounded=1;whiteSpace=wrap;html=1;fillColor=#fff2cc;strokeColor=#d6b656;" vertex="1" parent="1">
          <mxGeometry x="448.5" y="632" width="120" height="60" as="geometry" />
        </mxCell>
        <mxCell id="gv8EMFHTvYQYM4VQ_yAs-6" value="&lt;p class=&quot;MsoNormal&quot;&gt;&lt;font style=&quot;font-size: 18px;&quot; face=&quot;宋体&quot;&gt;文档上传模块&lt;/font&gt;&lt;/p&gt;" style="text;html=1;strokeColor=none;fillColor=none;align=center;verticalAlign=middle;whiteSpace=wrap;rounded=0;" vertex="1" parent="1">
          <mxGeometry x="446" y="647" width="125" height="30" as="geometry" />
        </mxCell>
        <mxCell id="gv8EMFHTvYQYM4VQ_yAs-7" value="" style="rounded=1;whiteSpace=wrap;html=1;fillColor=#fff2cc;strokeColor=#d6b656;" vertex="1" parent="1">
          <mxGeometry x="449" y="749" width="120" height="60" as="geometry" />
        </mxCell>
        <mxCell id="gv8EMFHTvYQYM4VQ_yAs-8" value="&lt;p class=&quot;MsoNormal&quot;&gt;&lt;font style=&quot;font-size: 18px;&quot; face=&quot;宋体&quot;&gt;文档上传模块&lt;/font&gt;&lt;/p&gt;" style="text;html=1;strokeColor=none;fillColor=none;align=center;verticalAlign=middle;whiteSpace=wrap;rounded=0;" vertex="1" parent="1">
          <mxGeometry x="446.5" y="764" width="125" height="30" as="geometry" />
        </mxCell>
        <mxCell id="gv8EMFHTvYQYM4VQ_yAs-9" value="" style="rounded=1;whiteSpace=wrap;html=1;fillColor=#fff2cc;strokeColor=#d6b656;" vertex="1" parent="1">
          <mxGeometry x="227.5" y="871" width="120" height="60" as="geometry" />
        </mxCell>
        <mxCell id="gv8EMFHTvYQYM4VQ_yAs-10" value="&lt;p class=&quot;MsoNormal&quot;&gt;&lt;font style=&quot;font-size: 18px;&quot; face=&quot;宋体&quot;&gt;文档上传模块&lt;/font&gt;&lt;/p&gt;" style="text;html=1;strokeColor=none;fillColor=none;align=center;verticalAlign=middle;whiteSpace=wrap;rounded=0;" vertex="1" parent="1">
          <mxGeometry x="225" y="886" width="125" height="30" as="geometry" />
        </mxCell>
        <mxCell id="gv8EMFHTvYQYM4VQ_yAs-11" value="" style="rounded=1;whiteSpace=wrap;html=1;fillColor=#fff2cc;strokeColor=#d6b656;" vertex="1" parent="1">
          <mxGeometry x="450" y="871" width="120" height="60" as="geometry" />
        </mxCell>
        <mxCell id="gv8EMFHTvYQYM4VQ_yAs-12" value="&lt;p class=&quot;MsoNormal&quot;&gt;&lt;font style=&quot;font-size: 18px;&quot; face=&quot;宋体&quot;&gt;文档上传模块&lt;/font&gt;&lt;/p&gt;" style="text;html=1;strokeColor=none;fillColor=none;align=center;verticalAlign=middle;whiteSpace=wrap;rounded=0;" vertex="1" parent="1">
          <mxGeometry x="447.5" y="886" width="125" height="30" as="geometry" />
        </mxCell>
        <mxCell id="gv8EMFHTvYQYM4VQ_yAs-13" value="" style="rounded=1;whiteSpace=wrap;html=1;fillColor=#fff2cc;strokeColor=#d6b656;" vertex="1" parent="1">
          <mxGeometry x="222" y="530" width="340" height="50" as="geometry" />
        </mxCell>
        <mxCell id="gv8EMFHTvYQYM4VQ_yAs-14" value="&lt;font style=&quot;font-size: 24px;&quot;&gt;文档存储检索系统&lt;/font&gt;" style="text;html=1;strokeColor=none;fillColor=none;align=center;verticalAlign=middle;whiteSpace=wrap;rounded=0;strokeWidth=2;" vertex="1" parent="1">
          <mxGeometry x="222.5" y="540" width="328.5" height="30" as="geometry" />
        </mxCell>
        <mxCell id="gv8EMFHTvYQYM4VQ_yAs-15" style="edgeStyle=orthogonalEdgeStyle;rounded=1;orthogonalLoop=1;jettySize=auto;html=1;fillColor=#fff2cc;strokeColor=#d6b656;strokeWidth=4;" edge="1" parent="1" source="gv8EMFHTvYQYM4VQ_yAs-16">
          <mxGeometry relative="1" as="geometry">
            <mxPoint x="277" y="230.99999999999977" as="targetPoint" />
          </mxGeometry>
        </mxCell>
        <mxCell id="gv8EMFHTvYQYM4VQ_yAs-16" value="" style="rounded=1;whiteSpace=wrap;html=1;fillColor=#dae8fc;strokeColor=#6c8ebf;" vertex="1" parent="1">
          <mxGeometry x="47" y="81" width="200" height="110" as="geometry" />
        </mxCell>
        <mxCell id="gv8EMFHTvYQYM4VQ_yAs-19" value="" style="shape=doubleArrow;direction=south;whiteSpace=wrap;html=1;fillColor=#fff2cc;strokeColor=#d6b656;" vertex="1" parent="1">
          <mxGeometry x="352.5" y="451" width="20" height="60" as="geometry" />
        </mxCell>
        <mxCell id="gv8EMFHTvYQYM4VQ_yAs-20" value="" style="shape=doubleArrow;direction=south;whiteSpace=wrap;html=1;fillColor=#fff2cc;strokeColor=#d6b656;" vertex="1" parent="1">
          <mxGeometry x="396.5" y="451" width="20" height="60" as="geometry" />
        </mxCell>
        <mxCell id="gv8EMFHTvYQYM4VQ_yAs-21" value="" style="shape=doubleArrow;direction=south;whiteSpace=wrap;html=1;fillColor=#fff2cc;strokeColor=#d6b656;" vertex="1" parent="1">
          <mxGeometry x="436.5" y="451" width="20" height="60" as="geometry" />
        </mxCell>
        <mxCell id="gv8EMFHTvYQYM4VQ_yAs-22" value="" style="editableCssRules=.*;html=1;shape=image;verticalLabelPosition=bottom;labelBackgroundColor=#ffffff;verticalAlign=top;aspect=fixed;imageAspect=0;image=data:image/svg+xml,PHN2ZyB4bWxucz0iaHR0cDovL3d3dy53My5vcmcvMjAwMC9zdmciIHhtbG5zOnY9Imh0dHBzOi8vdmVjdGEuaW8vbmFubyIgd2lkdGg9IjIwIiBoZWlnaHQ9IjE5LjI5OTk5OTIzNzA2MDU0NyIgdmlld0JveD0iMCAwIDIwIDE5LjI5OTk5OTIzNzA2MDU0NyI+JiN4YTsJPHN0eWxlIHR5cGU9InRleHQvY3NzIj4mI3hhOwkuc3Qwe2ZpbGw6IzQyODVmNDt9JiN4YTsJLnN0MXtmaWxsOiM2NjlkZjY7fSYjeGE7CTwvc3R5bGU+JiN4YTsJPHBhdGggY2xhc3M9InN0MCIgZD0iTTIuNDMgNi4xSDBWMi42N2gzLjk0bDguNCAxMC40OWgyLjM0di0yLjcyTDIwIDE0Ljg3bC01LjMyIDQuNDN2LTIuNzFoLTMuODd6Ii8+JiN4YTsJPHBhdGggY2xhc3M9InN0MSIgZD0iTTE0LjY4IDYuMTR2Mi43MkwyMCA0LjQzIDE0LjY4IDB2Mi43MWgtMy44N0w4LjMzIDUuODJsMi4xMyAyLjY3IDEuODgtMi4zNXpNMCAxMy4ydjMuNDNoMy45NGwyLjUyLTMuMTUtMi4xMy0yLjY3LTEuOSAyLjM5eiIvPiYjeGE7PC9zdmc+;" vertex="1" parent="1">
          <mxGeometry x="355.68" y="341" width="92.63" height="88" as="geometry" />
        </mxCell>
        <mxCell id="gv8EMFHTvYQYM4VQ_yAs-23" value="&lt;font style=&quot;font-size: 24px;&quot;&gt;数据交换中心&lt;/font&gt;" style="text;html=1;strokeColor=#b46504;fillColor=#fad7ac;align=center;verticalAlign=middle;whiteSpace=wrap;rounded=0;" vertex="1" parent="1">
          <mxGeometry x="317" y="281" width="170" height="30" as="geometry" />
        </mxCell>
        <mxCell id="gv8EMFHTvYQYM4VQ_yAs-24" value="" style="fontColor=#0066CC;verticalAlign=top;verticalLabelPosition=bottom;labelPosition=center;align=center;html=1;outlineConnect=0;fillColor=#CCCCCC;strokeColor=#6881B3;gradientColor=none;gradientDirection=north;strokeWidth=2;shape=mxgraph.networks.pc;" vertex="1" parent="1">
          <mxGeometry x="72" y="111" width="70" height="50" as="geometry" />
        </mxCell>
        <mxCell id="gv8EMFHTvYQYM4VQ_yAs-25" value="" style="shape=mxgraph.cisco.computers_and_peripherals.laptop;html=1;pointerEvents=1;dashed=0;fillColor=#036897;strokeColor=#ffffff;strokeWidth=2;verticalLabelPosition=bottom;verticalAlign=top;align=center;outlineConnect=0;" vertex="1" parent="1">
          <mxGeometry x="152" y="111" width="70" height="50" as="geometry" />
        </mxCell>
        <mxCell id="gv8EMFHTvYQYM4VQ_yAs-26" value="&lt;p class=&quot;MsoNormal&quot;&gt;&lt;font face=&quot;仿宋_GB2312&quot;&gt;管理人员&lt;/font&gt;&lt;/p&gt;" style="text;html=1;strokeColor=none;fillColor=none;align=center;verticalAlign=middle;whiteSpace=wrap;rounded=0;" vertex="1" parent="1">
          <mxGeometry x="117" y="41" width="60" height="30" as="geometry" />
        </mxCell>
        <mxCell id="gv8EMFHTvYQYM4VQ_yAs-27" style="edgeStyle=orthogonalEdgeStyle;rounded=0;orthogonalLoop=1;jettySize=auto;html=1;exitX=0.5;exitY=1;exitDx=0;exitDy=0;fillColor=#fff2cc;strokeColor=#d6b656;strokeWidth=4;" edge="1" parent="1" source="gv8EMFHTvYQYM4VQ_yAs-28" target="gv8EMFHTvYQYM4VQ_yAs-37">
          <mxGeometry relative="1" as="geometry" />
        </mxCell>
        <mxCell id="gv8EMFHTvYQYM4VQ_yAs-28" value="" style="rounded=1;whiteSpace=wrap;html=1;fillColor=#dae8fc;strokeColor=#6c8ebf;" vertex="1" parent="1">
          <mxGeometry x="314" y="81" width="200" height="110" as="geometry" />
        </mxCell>
        <mxCell id="gv8EMFHTvYQYM4VQ_yAs-29" value="" style="fontColor=#0066CC;verticalAlign=top;verticalLabelPosition=bottom;labelPosition=center;align=center;html=1;outlineConnect=0;fillColor=#CCCCCC;strokeColor=#6881B3;gradientColor=none;gradientDirection=north;strokeWidth=2;shape=mxgraph.networks.pc;" vertex="1" parent="1">
          <mxGeometry x="339" y="111" width="70" height="50" as="geometry" />
        </mxCell>
        <mxCell id="gv8EMFHTvYQYM4VQ_yAs-30" value="" style="shape=mxgraph.cisco.computers_and_peripherals.laptop;html=1;pointerEvents=1;dashed=0;fillColor=#036897;strokeColor=#ffffff;strokeWidth=2;verticalLabelPosition=bottom;verticalAlign=top;align=center;outlineConnect=0;" vertex="1" parent="1">
          <mxGeometry x="419" y="111" width="70" height="50" as="geometry" />
        </mxCell>
        <mxCell id="gv8EMFHTvYQYM4VQ_yAs-31" value="&lt;p class=&quot;MsoNormal&quot;&gt;&lt;font face=&quot;仿宋_GB2312&quot;&gt;审查员&lt;/font&gt;&lt;/p&gt;" style="text;html=1;strokeColor=none;fillColor=none;align=center;verticalAlign=middle;whiteSpace=wrap;rounded=0;" vertex="1" parent="1">
          <mxGeometry x="384" y="41" width="60" height="30" as="geometry" />
        </mxCell>
        <mxCell id="gv8EMFHTvYQYM4VQ_yAs-32" style="edgeStyle=orthogonalEdgeStyle;rounded=0;orthogonalLoop=1;jettySize=auto;html=1;entryX=0.321;entryY=0;entryDx=0;entryDy=0;entryPerimeter=0;fillColor=#dae8fc;strokeColor=#6c8ebf;strokeWidth=4;" edge="1" parent="1" source="gv8EMFHTvYQYM4VQ_yAs-33" target="gv8EMFHTvYQYM4VQ_yAs-39">
          <mxGeometry relative="1" as="geometry" />
        </mxCell>
        <mxCell id="gv8EMFHTvYQYM4VQ_yAs-33" value="" style="rounded=1;whiteSpace=wrap;html=1;fillColor=#dae8fc;strokeColor=#6c8ebf;" vertex="1" parent="1">
          <mxGeometry x="577" y="81" width="200" height="110" as="geometry" />
        </mxCell>
        <mxCell id="gv8EMFHTvYQYM4VQ_yAs-34" value="" style="fontColor=#0066CC;verticalAlign=top;verticalLabelPosition=bottom;labelPosition=center;align=center;html=1;outlineConnect=0;fillColor=#CCCCCC;strokeColor=#6881B3;gradientColor=none;gradientDirection=north;strokeWidth=2;shape=mxgraph.networks.pc;" vertex="1" parent="1">
          <mxGeometry x="602" y="111" width="70" height="50" as="geometry" />
        </mxCell>
        <mxCell id="gv8EMFHTvYQYM4VQ_yAs-35" value="" style="shape=mxgraph.cisco.computers_and_peripherals.laptop;html=1;pointerEvents=1;dashed=0;fillColor=#036897;strokeColor=#ffffff;strokeWidth=2;verticalLabelPosition=bottom;verticalAlign=top;align=center;outlineConnect=0;" vertex="1" parent="1">
          <mxGeometry x="682" y="111" width="70" height="50" as="geometry" />
        </mxCell>
        <mxCell id="gv8EMFHTvYQYM4VQ_yAs-36" value="&lt;p class=&quot;MsoNormal&quot;&gt;&lt;font face=&quot;仿宋_GB2312&quot;&gt;普通用户&lt;/font&gt;&lt;/p&gt;" style="text;html=1;strokeColor=none;fillColor=none;align=center;verticalAlign=middle;whiteSpace=wrap;rounded=0;" vertex="1" parent="1">
          <mxGeometry x="647" y="41" width="60" height="30" as="geometry" />
        </mxCell>
        <mxCell id="gv8EMFHTvYQYM4VQ_yAs-37" value="" style="image;aspect=fixed;html=1;points=[];align=center;fontSize=12;image=img/lib/azure2/networking/Azure_Firewall_Manager.svg;" vertex="1" parent="1">
          <mxGeometry x="100.33999999999999" y="271" width="93.33" height="80" as="geometry" />
        </mxCell>
        <mxCell id="gv8EMFHTvYQYM4VQ_yAs-38" style="edgeStyle=orthogonalEdgeStyle;rounded=0;orthogonalLoop=1;jettySize=auto;html=1;entryX=0.584;entryY=0.998;entryDx=0;entryDy=0;entryPerimeter=0;fillColor=#dae8fc;strokeColor=#6c8ebf;strokeWidth=4;" edge="1" parent="1" source="gv8EMFHTvYQYM4VQ_yAs-39" target="gv8EMFHTvYQYM4VQ_yAs-33">
          <mxGeometry relative="1" as="geometry" />
        </mxCell>
        <mxCell id="gv8EMFHTvYQYM4VQ_yAs-39" value="" style="image;aspect=fixed;html=1;points=[];align=center;fontSize=12;image=img/lib/azure2/networking/Azure_Firewall_Manager.svg;" vertex="1" parent="1">
          <mxGeometry x="646.9999999999999" y="271" width="93.33" height="80" as="geometry" />
        </mxCell>
        <mxCell id="gv8EMFHTvYQYM4VQ_yAs-40" value="&lt;font style=&quot;font-size: 14px;&quot;&gt;内部防火墙&lt;/font&gt;" style="text;html=1;strokeColor=none;fillColor=none;align=center;verticalAlign=middle;whiteSpace=wrap;rounded=0;" vertex="1" parent="1">
          <mxGeometry x="7" y="276" width="80" height="30" as="geometry" />
        </mxCell>
        <mxCell id="gv8EMFHTvYQYM4VQ_yAs-41" value="&lt;font style=&quot;font-size: 14px;&quot;&gt;外部防火墙&lt;/font&gt;" style="text;html=1;strokeColor=none;fillColor=none;align=center;verticalAlign=middle;whiteSpace=wrap;rounded=0;" vertex="1" parent="1">
          <mxGeometry x="740.33" y="276" width="80" height="30" as="geometry" />
        </mxCell>
        <mxCell id="gv8EMFHTvYQYM4VQ_yAs-42" value="" style="shape=doubleArrow;whiteSpace=wrap;html=1;fillColor=#fff2cc;strokeColor=#d6b656;" vertex="1" parent="1">
          <mxGeometry x="217" y="281" width="70" height="20" as="geometry" />
        </mxCell>
        <mxCell id="gv8EMFHTvYQYM4VQ_yAs-43" value="" style="shape=doubleArrow;whiteSpace=wrap;html=1;fillColor=#dae8fc;strokeColor=#6c8ebf;" vertex="1" parent="1">
          <mxGeometry x="537" y="286" width="70" height="20" as="geometry" />
        </mxCell>
      </root>
    </mxGraphModel>
  </diagram>
</mxfile>
